<svg xmlns="http://www.w3.org/2000/svg" xmlns:xlink="http://www.w3.org/1999/xlink" id="Layer_1" x="0" y="0" enable-background="new 0 0 65 65" version="1.1" viewBox="0 0 65 65" xml:space="preserve"><style type="text/css">.st0{fill:#279ef4}</style><title>Upload_Upload</title><path d="M32.5,1C49.9,1,64,15.1,64,32.5S49.9,64,32.5,64S1,49.9,1,32.5C1,15.1,15.1,1,32.5,1 M32.5,0	C14.6,0,0,14.6,0,32.5S14.6,65,32.5,65S65,50.4,65,32.5S50.4,0,32.5,0L32.5,0z" class="st0"/><polygon points="41.9 28.2 32.6 18.6 23.1 28.4 24.2 29.4 31.9 21.5 31.9 40 33.4 40 33.4 21.6 40.8 29.2" class="st0"/><polygon points="40.7 40.3 40.7 44.3 24.3 44.3 24.3 40.3 22.3 40.3 22.3 44.3 22.3 46.3 24.3 46.3 40.7 46.3 42.7 46.3 42.7 44.3 42.7 40.3" class="st0"/></svg>